<?xml version="1.0" standalone="no"?>
<!DOCTYPE svg PUBLIC "-//W3C//DTD SVG 20010904//EN"
 "http://www.w3.org/TR/2001/REC-SVG-20010904/DTD/svg10.dtd">
<svg version="1.0" xmlns="http://www.w3.org/2000/svg"
 width="600.000000pt" height="600.000000pt" viewBox="0 0 600.000000 600.000000"
 preserveAspectRatio="xMidYMid meet">

<g transform="translate(0.000000,600.000000) scale(0.100000,-0.100000)"
fill="#000000" stroke="none">
<path d="M2815 5423 c-360 -57 -661 -302 -779 -632 -15 -41 -23 -77 -19 -81 4
-4 26 -13 48 -20 81 -25 234 -112 318 -180 l87 -70 0 50 c0 106 60 229 155
319 185 175 478 169 661 -13 104 -104 150 -227 141 -371 -3 -57 -13 -100 -32
-145 -15 -36 -42 -101 -61 -145 -53 -126 -69 -211 -68 -365 0 -151 20 -255 73
-380 34 -79 103 -191 163 -261 l40 -48 81 65 c88 70 237 151 329 180 l58 18
-49 32 c-141 95 -228 292 -201 458 12 76 27 122 69 204 17 33 43 101 58 149
24 81 27 102 27 263 1 190 -5 225 -63 377 -57 146 -179 305 -311 405 -85 65
-244 142 -350 169 -84 21 -300 34 -375 22z"/>
<path d="M4160 4744 c-19 -3 -66 -9 -103 -15 l-69 -11 6 -37 c4 -20 9 -102 12
-182 6 -134 0 -216 -22 -297 l-7 -23 34 20 c57 32 138 51 225 51 143 0 252
-48 352 -154 237 -250 132 -664 -198 -781 -25 -9 -94 -20 -155 -26 -252 -22
-443 -104 -612 -263 -93 -88 -153 -167 -203 -266 -33 -65 -70 -163 -70 -184 0
-6 36 -24 79 -39 96 -34 230 -113 310 -184 l59 -52 11 77 c22 151 118 291 248
359 76 41 121 52 252 63 420 37 743 303 867 715 25 81 27 106 28 250 0 188
-17 269 -90 424 -129 273 -385 476 -674 534 -82 17 -224 27 -280 21z"/>
<path d="M1554 4646 c-283 -54 -501 -197 -655 -430 -111 -169 -153 -313 -153
-531 0 -164 11 -225 64 -363 47 -123 194 -332 223 -318 7 3 41 31 77 61 74 61
208 136 306 169 l66 22 -56 42 c-189 143 -246 386 -141 599 142 288 521 358
753 139 30 -28 76 -82 102 -121 137 -202 330 -339 566 -402 81 -21 123 -26
229 -27 76 -1 159 5 198 13 l69 14 -6 31 c-30 142 -30 312 -2 442 l13 61 -46
-23 c-65 -34 -182 -56 -250 -48 -162 19 -278 91 -373 232 -63 94 -175 212
-254 268 -86 61 -234 129 -334 154 -109 27 -299 35 -396 16z"/>
<path d="M2191 3622 c-22 -151 -118 -291 -248 -359 -76 -41 -121 -52 -252 -63
-387 -34 -710 -277 -840 -632 -47 -127 -55 -178 -55 -338 0 -130 3 -169 23
-240 97 -364 384 -638 746 -715 97 -21 273 -23 373 -6 81 14 79 12 62 102 -15
79 -12 293 5 374 8 38 15 71 15 72 0 1 -15 -6 -32 -16 -56 -32 -138 -51 -224
-51 -143 0 -252 48 -352 154 -237 250 -132 664 198 781 25 9 95 20 155 26 252
22 443 104 612 263 93 88 153 167 203 266 33 65 70 163 70 184 0 6 -36 24 -79
39 -96 34 -230 113 -310 184 l-59 52 -11 -77z"/>
<path d="M4949 2984 c-51 -61 -233 -170 -357 -214 l-74 -26 56 -42 c189 -143
246 -386 141 -599 -142 -288 -521 -358 -753 -139 -30 28 -76 83 -102 121 -137
202 -330 339 -566 402 -81 21 -123 26 -229 27 -76 1 -159 -5 -198 -13 l-69
-14 6 -31 c30 -142 30 -312 2 -442 l-13 -61 46 23 c65 34 182 56 250 48 162
-19 278 -91 373 -232 63 -94 175 -212 254 -268 87 -62 234 -129 340 -156 126
-31 332 -31 457 0 242 60 446 204 584 410 101 151 151 304 160 492 12 249 -65
476 -227 674 -48 59 -60 65 -81 40z"/>
<path d="M2375 2854 c-86 -69 -235 -151 -327 -180 l-58 -18 49 -32 c141 -95
228 -292 201 -458 -12 -76 -27 -122 -69 -204 -17 -33 -43 -101 -58 -149 -24
-81 -27 -102 -27 -263 -1 -190 5 -225 63 -377 57 -146 179 -305 311 -405 84
-65 243 -141 350 -170 123 -32 358 -32 480 1 315 85 569 314 674 610 15 41 23
77 19 81 -4 4 -26 13 -48 20 -81 25 -234 112 -318 180 l-87 70 0 -50 c0 -106
-60 -229 -155 -319 -185 -175 -478 -169 -661 13 -104 104 -150 227 -141 371 3
57 13 100 32 145 15 36 42 101 61 145 53 126 69 211 68 365 0 151 -20 255 -74
381 -32 76 -118 211 -172 270 l-33 37 -80 -64z"/>
</g>
</svg>
